# xmcd CD database file
#
# Track frame offsets:
#	150
#	12557
#	34930
#	65287
#	97515
#	129765
#	176225
#	216900
#	246765
#	287215
#
# Disc length: 4421 seconds
#
# Revision: 0
# Processed by: cddbd v1.5.1PL0 Copyright (c) Steve Scherf et al.
# Submitted via: CDex 1.51
#
DISCID=8811430a
DTITLE=割礼 - LIVE9091
DYEAR=1991
DGENRE=Psychadelic
TTITLE0=ラヴ？
TTITLE1=海のあの娘
TTITLE2=散歩
TTITLE3=光り輝く少女
TTITLE4=ネイルフラン
TTITLE5=太陽の真中のリフ
TTITLE6=君の写真
TTITLE7=素敵な季節
TTITLE8=緑色の炎
TTITLE9=ゲーペーウー
EXTD=YEAR: 1991
EXTT0=
EXTT1=
EXTT2=
EXTT3=
EXTT4=
EXTT5=
EXTT6=
EXTT7=
EXTT8=
EXTT9=
PLAYORDER=
